<mxfile host="app.diagrams.net" modified="2024-01-25T16:14:51.268Z" agent="Mozilla/5.0 (X11; Linux x86_64; rv:96.0) Gecko/20100101 Firefox/96.0" etag="GgxzETjG2tmnEZaUcZfY" version="23.0.1" type="github">
  <diagram name="Page-1" id="58cdce13-f638-feb5-8d6f-7d28b1aa9fa0">
    <mxGraphModel dx="2374" dy="668" grid="1" gridSize="10" guides="1" tooltips="1" connect="1" arrows="1" fold="1" page="1" pageScale="1" pageWidth="1100" pageHeight="850" background="none" math="0" shadow="0">
      <root>
        <mxCell id="0" />
        <mxCell id="1" parent="0" />
        <mxCell id="AWg_gz1br5wKKJKmFN-r-30" style="edgeStyle=orthogonalEdgeStyle;rounded=0;orthogonalLoop=1;jettySize=auto;html=1;exitX=1;exitY=0.5;exitDx=0;exitDy=0;curved=1;" edge="1" parent="1" source="AWg_gz1br5wKKJKmFN-r-6" target="AWg_gz1br5wKKJKmFN-r-9">
          <mxGeometry relative="1" as="geometry" />
        </mxCell>
        <mxCell id="AWg_gz1br5wKKJKmFN-r-34" value="&lt;div&gt;&lt;b&gt;&lt;font color=&quot;#FF0000&quot;&gt;1&lt;/font&gt;&lt;/b&gt;&lt;/div&gt;&lt;div&gt;ident&lt;/div&gt;" style="edgeLabel;html=1;align=center;verticalAlign=middle;resizable=0;points=[];" vertex="1" connectable="0" parent="AWg_gz1br5wKKJKmFN-r-30">
          <mxGeometry x="0.16" y="1" relative="1" as="geometry">
            <mxPoint x="-9" as="offset" />
          </mxGeometry>
        </mxCell>
        <mxCell id="AWg_gz1br5wKKJKmFN-r-33" style="edgeStyle=orthogonalEdgeStyle;rounded=0;orthogonalLoop=1;jettySize=auto;html=1;exitX=0.5;exitY=1;exitDx=0;exitDy=0;curved=1;" edge="1" parent="1" source="AWg_gz1br5wKKJKmFN-r-6" target="AWg_gz1br5wKKJKmFN-r-10">
          <mxGeometry relative="1" as="geometry" />
        </mxCell>
        <mxCell id="AWg_gz1br5wKKJKmFN-r-35" value="&lt;font color=&quot;#FF0000&quot;&gt;&lt;b&gt;9&lt;/b&gt;&lt;/font&gt;&lt;br&gt;&lt;div&gt;BARRE&lt;/div&gt;" style="edgeLabel;html=1;align=center;verticalAlign=middle;resizable=0;points=[];" vertex="1" connectable="0" parent="AWg_gz1br5wKKJKmFN-r-33">
          <mxGeometry x="0.0222" y="-4" relative="1" as="geometry">
            <mxPoint as="offset" />
          </mxGeometry>
        </mxCell>
        <mxCell id="AWg_gz1br5wKKJKmFN-r-6" value="0" style="ellipse;whiteSpace=wrap;html=1;aspect=fixed;" vertex="1" parent="1">
          <mxGeometry x="20" y="300" width="50" height="50" as="geometry" />
        </mxCell>
        <mxCell id="AWg_gz1br5wKKJKmFN-r-36" style="edgeStyle=orthogonalEdgeStyle;rounded=0;orthogonalLoop=1;jettySize=auto;html=1;exitX=1;exitY=0.5;exitDx=0;exitDy=0;curved=1;entryX=0;entryY=0.5;entryDx=0;entryDy=0;" edge="1" parent="1" source="AWg_gz1br5wKKJKmFN-r-9" target="AWg_gz1br5wKKJKmFN-r-31">
          <mxGeometry relative="1" as="geometry" />
        </mxCell>
        <mxCell id="AWg_gz1br5wKKJKmFN-r-37" value="&lt;div&gt;nbentier&lt;/div&gt;" style="edgeLabel;html=1;align=center;verticalAlign=middle;resizable=0;points=[];" vertex="1" connectable="0" parent="AWg_gz1br5wKKJKmFN-r-36">
          <mxGeometry x="0.2348" relative="1" as="geometry">
            <mxPoint x="-10" as="offset" />
          </mxGeometry>
        </mxCell>
        <mxCell id="AWg_gz1br5wKKJKmFN-r-38" style="edgeStyle=orthogonalEdgeStyle;rounded=0;orthogonalLoop=1;jettySize=auto;html=1;exitX=1;exitY=0;exitDx=0;exitDy=0;curved=1;" edge="1" parent="1" source="AWg_gz1br5wKKJKmFN-r-9" target="AWg_gz1br5wKKJKmFN-r-18">
          <mxGeometry relative="1" as="geometry">
            <Array as="points">
              <mxPoint x="183" y="170" />
            </Array>
          </mxGeometry>
        </mxCell>
        <mxCell id="AWg_gz1br5wKKJKmFN-r-39" value="&lt;font color=&quot;#FF3333&quot;&gt;&lt;b&gt;5&lt;/b&gt;&lt;/font&gt;&lt;div&gt;FIN&lt;/div&gt;" style="edgeLabel;html=1;align=center;verticalAlign=middle;resizable=0;points=[];" vertex="1" connectable="0" parent="AWg_gz1br5wKKJKmFN-r-38">
          <mxGeometry x="0.148" y="1" relative="1" as="geometry">
            <mxPoint x="-29" as="offset" />
          </mxGeometry>
        </mxCell>
        <mxCell id="AWg_gz1br5wKKJKmFN-r-40" style="edgeStyle=orthogonalEdgeStyle;rounded=0;orthogonalLoop=1;jettySize=auto;html=1;exitX=1;exitY=1;exitDx=0;exitDy=0;curved=1;" edge="1" parent="1" source="AWg_gz1br5wKKJKmFN-r-9" target="AWg_gz1br5wKKJKmFN-r-27">
          <mxGeometry relative="1" as="geometry">
            <Array as="points">
              <mxPoint x="190" y="343" />
              <mxPoint x="190" y="390" />
              <mxPoint x="525" y="390" />
            </Array>
          </mxGeometry>
        </mxCell>
        <mxCell id="AWg_gz1br5wKKJKmFN-r-41" value="&lt;div&gt;&lt;font color=&quot;#FF0000&quot;&gt;&lt;b&gt;3&lt;/b&gt;&lt;/font&gt;&lt;/div&gt;&lt;div&gt;DEBUT&lt;/div&gt;" style="edgeLabel;html=1;align=center;verticalAlign=middle;resizable=0;points=[];" vertex="1" connectable="0" parent="AWg_gz1br5wKKJKmFN-r-40">
          <mxGeometry x="0.5231" y="-1" relative="1" as="geometry">
            <mxPoint as="offset" />
          </mxGeometry>
        </mxCell>
        <mxCell id="AWg_gz1br5wKKJKmFN-r-9" value="1" style="ellipse;whiteSpace=wrap;html=1;aspect=fixed;" vertex="1" parent="1">
          <mxGeometry x="140" y="300" width="50" height="50" as="geometry" />
        </mxCell>
        <mxCell id="AWg_gz1br5wKKJKmFN-r-10" value="11" style="ellipse;whiteSpace=wrap;html=1;aspect=fixed;" vertex="1" parent="1">
          <mxGeometry x="20" y="520" width="50" height="50" as="geometry" />
        </mxCell>
        <mxCell id="AWg_gz1br5wKKJKmFN-r-18" value="4" style="ellipse;whiteSpace=wrap;html=1;aspect=fixed;" vertex="1" parent="1">
          <mxGeometry x="525" y="130" width="50" height="50" as="geometry" />
        </mxCell>
        <mxCell id="AWg_gz1br5wKKJKmFN-r-19" value="&lt;div&gt;9&lt;/div&gt;" style="ellipse;whiteSpace=wrap;html=1;aspect=fixed;" vertex="1" parent="1">
          <mxGeometry x="490" y="30" width="50" height="50" as="geometry" />
        </mxCell>
        <mxCell id="AWg_gz1br5wKKJKmFN-r-20" value="&lt;div&gt;8&lt;/div&gt;" style="ellipse;whiteSpace=wrap;html=1;aspect=fixed;" vertex="1" parent="1">
          <mxGeometry x="940" y="310" width="50" height="50" as="geometry" />
        </mxCell>
        <mxCell id="AWg_gz1br5wKKJKmFN-r-51" style="edgeStyle=orthogonalEdgeStyle;rounded=0;orthogonalLoop=1;jettySize=auto;html=1;exitX=1;exitY=0.5;exitDx=0;exitDy=0;curved=1;" edge="1" parent="1" source="AWg_gz1br5wKKJKmFN-r-22" target="AWg_gz1br5wKKJKmFN-r-23">
          <mxGeometry relative="1" as="geometry" />
        </mxCell>
        <mxCell id="AWg_gz1br5wKKJKmFN-r-52" value="&lt;div&gt;&lt;font color=&quot;#FF0000&quot;&gt;&lt;b&gt;6&lt;/b&gt;&lt;/font&gt;&lt;/div&gt;&lt;div&gt;ADULTE&lt;/div&gt;" style="edgeLabel;html=1;align=center;verticalAlign=middle;resizable=0;points=[];" vertex="1" connectable="0" parent="AWg_gz1br5wKKJKmFN-r-51">
          <mxGeometry x="0.152" y="-1" relative="1" as="geometry">
            <mxPoint as="offset" />
          </mxGeometry>
        </mxCell>
        <mxCell id="AWg_gz1br5wKKJKmFN-r-57" style="edgeStyle=orthogonalEdgeStyle;rounded=0;orthogonalLoop=1;jettySize=auto;html=1;exitX=0;exitY=0.5;exitDx=0;exitDy=0;entryX=1;entryY=1;entryDx=0;entryDy=0;curved=1;" edge="1" parent="1" source="AWg_gz1br5wKKJKmFN-r-23" target="AWg_gz1br5wKKJKmFN-r-6">
          <mxGeometry relative="1" as="geometry">
            <Array as="points">
              <mxPoint x="800" y="420" />
              <mxPoint x="63" y="420" />
            </Array>
          </mxGeometry>
        </mxCell>
        <mxCell id="AWg_gz1br5wKKJKmFN-r-58" value="&lt;div&gt;&lt;font color=&quot;#FF0000&quot;&gt;&lt;b&gt;8&lt;/b&gt;&lt;/font&gt;&lt;/div&gt;&lt;div&gt;PTVIRG&lt;/div&gt;" style="edgeLabel;html=1;align=center;verticalAlign=middle;resizable=0;points=[];" vertex="1" connectable="0" parent="AWg_gz1br5wKKJKmFN-r-57">
          <mxGeometry x="-0.5234" y="3" relative="1" as="geometry">
            <mxPoint x="-32" y="-3" as="offset" />
          </mxGeometry>
        </mxCell>
        <mxCell id="AWg_gz1br5wKKJKmFN-r-49" style="edgeStyle=orthogonalEdgeStyle;rounded=0;orthogonalLoop=1;jettySize=auto;html=1;exitX=1;exitY=0.5;exitDx=0;exitDy=0;curved=1;" edge="1" parent="1" source="AWg_gz1br5wKKJKmFN-r-27" target="AWg_gz1br5wKKJKmFN-r-22">
          <mxGeometry relative="1" as="geometry">
            <Array as="points">
              <mxPoint x="580" y="315" />
              <mxPoint x="580" y="340" />
              <mxPoint x="695" y="340" />
            </Array>
          </mxGeometry>
        </mxCell>
        <mxCell id="AWg_gz1br5wKKJKmFN-r-50" value="nbentier" style="edgeLabel;html=1;align=center;verticalAlign=middle;resizable=0;points=[];" vertex="1" connectable="0" parent="AWg_gz1br5wKKJKmFN-r-49">
          <mxGeometry x="0.5294" y="1" relative="1" as="geometry">
            <mxPoint x="-38" as="offset" />
          </mxGeometry>
        </mxCell>
        <mxCell id="AWg_gz1br5wKKJKmFN-r-47" style="edgeStyle=orthogonalEdgeStyle;rounded=0;orthogonalLoop=1;jettySize=auto;html=1;exitX=1;exitY=0.5;exitDx=0;exitDy=0;curved=1;" edge="1" parent="1" source="AWg_gz1br5wKKJKmFN-r-28" target="AWg_gz1br5wKKJKmFN-r-27">
          <mxGeometry relative="1" as="geometry" />
        </mxCell>
        <mxCell id="AWg_gz1br5wKKJKmFN-r-48" value="&lt;div&gt;&lt;font color=&quot;#CC0000&quot;&gt;&lt;b&gt;2&lt;/b&gt;&lt;/font&gt;&lt;/div&gt;&lt;div&gt;DEBUT&lt;/div&gt;" style="edgeLabel;html=1;align=center;verticalAlign=middle;resizable=0;points=[];" vertex="1" connectable="0" parent="AWg_gz1br5wKKJKmFN-r-47">
          <mxGeometry x="0.1833" y="-1" relative="1" as="geometry">
            <mxPoint x="-11" as="offset" />
          </mxGeometry>
        </mxCell>
        <mxCell id="AWg_gz1br5wKKJKmFN-r-28" value="3" style="ellipse;whiteSpace=wrap;html=1;aspect=fixed;" vertex="1" parent="1">
          <mxGeometry x="390" y="300" width="50" height="50" as="geometry" />
        </mxCell>
        <mxCell id="AWg_gz1br5wKKJKmFN-r-32" style="edgeStyle=orthogonalEdgeStyle;rounded=0;orthogonalLoop=1;jettySize=auto;html=1;exitX=0.5;exitY=1;exitDx=0;exitDy=0;" edge="1" parent="1" source="AWg_gz1br5wKKJKmFN-r-9" target="AWg_gz1br5wKKJKmFN-r-9">
          <mxGeometry relative="1" as="geometry" />
        </mxCell>
        <mxCell id="AWg_gz1br5wKKJKmFN-r-53" style="edgeStyle=orthogonalEdgeStyle;rounded=0;orthogonalLoop=1;jettySize=auto;html=1;exitX=0.5;exitY=0;exitDx=0;exitDy=0;entryX=0.74;entryY=0.9;entryDx=0;entryDy=0;entryPerimeter=0;curved=1;" edge="1" parent="1" source="AWg_gz1br5wKKJKmFN-r-22" target="AWg_gz1br5wKKJKmFN-r-18">
          <mxGeometry relative="1" as="geometry">
            <Array as="points">
              <mxPoint x="680" y="270" />
              <mxPoint x="680" y="240" />
              <mxPoint x="563" y="240" />
              <mxPoint x="563" y="190" />
              <mxPoint x="567" y="190" />
            </Array>
          </mxGeometry>
        </mxCell>
        <mxCell id="AWg_gz1br5wKKJKmFN-r-54" value="&lt;div&gt;&lt;font color=&quot;#FF0000&quot;&gt;&lt;b&gt;7&lt;/b&gt;&lt;/font&gt;&lt;/div&gt;&lt;div&gt;ENFANT&lt;/div&gt;" style="edgeLabel;html=1;align=center;verticalAlign=middle;resizable=0;points=[];" vertex="1" connectable="0" parent="AWg_gz1br5wKKJKmFN-r-53">
          <mxGeometry x="0.1587" y="1" relative="1" as="geometry">
            <mxPoint as="offset" />
          </mxGeometry>
        </mxCell>
        <mxCell id="AWg_gz1br5wKKJKmFN-r-93" style="edgeStyle=orthogonalEdgeStyle;curved=1;rounded=0;orthogonalLoop=1;jettySize=auto;html=1;exitX=1;exitY=0.5;exitDx=0;exitDy=0;" edge="1" parent="1" source="AWg_gz1br5wKKJKmFN-r-31" target="AWg_gz1br5wKKJKmFN-r-28">
          <mxGeometry relative="1" as="geometry" />
        </mxCell>
        <mxCell id="AWg_gz1br5wKKJKmFN-r-94" value="HEURES" style="edgeLabel;html=1;align=center;verticalAlign=middle;resizable=0;points=[];" vertex="1" connectable="0" parent="AWg_gz1br5wKKJKmFN-r-93">
          <mxGeometry x="0.2" relative="1" as="geometry">
            <mxPoint x="-12" as="offset" />
          </mxGeometry>
        </mxCell>
        <mxCell id="AWg_gz1br5wKKJKmFN-r-31" value="2" style="ellipse;whiteSpace=wrap;html=1;aspect=fixed;" vertex="1" parent="1">
          <mxGeometry x="270" y="300" width="50" height="50" as="geometry" />
        </mxCell>
        <mxCell id="AWg_gz1br5wKKJKmFN-r-67" value="" style="edgeStyle=orthogonalEdgeStyle;rounded=0;orthogonalLoop=1;jettySize=auto;html=1;exitX=0.5;exitY=0;exitDx=0;exitDy=0;curved=1;entryX=1;entryY=0.5;entryDx=0;entryDy=0;" edge="1" parent="1" source="AWg_gz1br5wKKJKmFN-r-20" target="AWg_gz1br5wKKJKmFN-r-18">
          <mxGeometry relative="1" as="geometry">
            <mxPoint x="985" y="280" as="sourcePoint" />
            <mxPoint x="540" y="305" as="targetPoint" />
            <Array as="points">
              <mxPoint x="965" y="180" />
              <mxPoint x="900" y="180" />
              <mxPoint x="900" y="170" />
              <mxPoint x="770" y="170" />
              <mxPoint x="770" y="165" />
            </Array>
          </mxGeometry>
        </mxCell>
        <mxCell id="AWg_gz1br5wKKJKmFN-r-68" value="&lt;font color=&quot;#CC0000&quot;&gt;&lt;b&gt;7&lt;/b&gt;&lt;/font&gt;&lt;div&gt;ENFANT&lt;/div&gt;" style="edgeLabel;html=1;align=center;verticalAlign=middle;resizable=0;points=[];" vertex="1" connectable="0" parent="AWg_gz1br5wKKJKmFN-r-67">
          <mxGeometry x="-0.1062" y="2" relative="1" as="geometry">
            <mxPoint x="18" as="offset" />
          </mxGeometry>
        </mxCell>
        <mxCell id="AWg_gz1br5wKKJKmFN-r-22" value="6" style="ellipse;whiteSpace=wrap;html=1;aspect=fixed;" vertex="1" parent="1">
          <mxGeometry x="670" y="270" width="50" height="50" as="geometry" />
        </mxCell>
        <mxCell id="AWg_gz1br5wKKJKmFN-r-69" value="" style="edgeStyle=orthogonalEdgeStyle;rounded=0;orthogonalLoop=1;jettySize=auto;html=1;exitX=0.5;exitY=0;exitDx=0;exitDy=0;entryX=0;entryY=1;entryDx=0;entryDy=0;curved=1;" edge="1" parent="1" source="AWg_gz1br5wKKJKmFN-r-28" target="AWg_gz1br5wKKJKmFN-r-18">
          <mxGeometry relative="1" as="geometry">
            <mxPoint x="435" y="440" as="sourcePoint" />
            <mxPoint x="578" y="169" as="targetPoint" />
            <Array as="points">
              <mxPoint x="405" y="250" />
              <mxPoint x="537" y="250" />
              <mxPoint x="537" y="180" />
              <mxPoint x="532" y="180" />
            </Array>
          </mxGeometry>
        </mxCell>
        <mxCell id="AWg_gz1br5wKKJKmFN-r-70" value="&lt;font color=&quot;#FF3333&quot;&gt;&lt;b&gt;4&lt;/b&gt;&lt;/font&gt;&lt;div&gt;FIN&lt;/div&gt;" style="edgeLabel;html=1;align=center;verticalAlign=middle;resizable=0;points=[];" vertex="1" connectable="0" parent="AWg_gz1br5wKKJKmFN-r-69">
          <mxGeometry x="-0.1548" relative="1" as="geometry">
            <mxPoint x="31" as="offset" />
          </mxGeometry>
        </mxCell>
        <mxCell id="AWg_gz1br5wKKJKmFN-r-27" value="5" style="ellipse;whiteSpace=wrap;html=1;aspect=fixed;" vertex="1" parent="1">
          <mxGeometry x="520" y="300" width="50" height="50" as="geometry" />
        </mxCell>
        <mxCell id="AWg_gz1br5wKKJKmFN-r-76" style="edgeStyle=orthogonalEdgeStyle;curved=1;rounded=0;orthogonalLoop=1;jettySize=auto;html=1;exitX=1;exitY=0;exitDx=0;exitDy=0;" edge="1" parent="1" source="AWg_gz1br5wKKJKmFN-r-23" target="AWg_gz1br5wKKJKmFN-r-20">
          <mxGeometry relative="1" as="geometry">
            <Array as="points">
              <mxPoint x="910" y="337" />
              <mxPoint x="910" y="337" />
            </Array>
          </mxGeometry>
        </mxCell>
        <mxCell id="AWg_gz1br5wKKJKmFN-r-77" value="&lt;div&gt;nbentier&lt;/div&gt;" style="edgeLabel;html=1;align=center;verticalAlign=middle;resizable=0;points=[];" vertex="1" connectable="0" parent="AWg_gz1br5wKKJKmFN-r-76">
          <mxGeometry x="-0.2255" y="1" relative="1" as="geometry">
            <mxPoint x="10" as="offset" />
          </mxGeometry>
        </mxCell>
        <mxCell id="AWg_gz1br5wKKJKmFN-r-83" style="edgeStyle=orthogonalEdgeStyle;curved=1;rounded=0;orthogonalLoop=1;jettySize=auto;html=1;exitX=0.5;exitY=0;exitDx=0;exitDy=0;entryX=1;entryY=0.5;entryDx=0;entryDy=0;" edge="1" parent="1" source="AWg_gz1br5wKKJKmFN-r-23" target="AWg_gz1br5wKKJKmFN-r-19">
          <mxGeometry relative="1" as="geometry">
            <Array as="points">
              <mxPoint x="840" y="330" />
              <mxPoint x="840" y="70" />
              <mxPoint x="573" y="70" />
              <mxPoint x="573" y="55" />
            </Array>
          </mxGeometry>
        </mxCell>
        <mxCell id="AWg_gz1br5wKKJKmFN-r-84" value="VIRG" style="edgeLabel;html=1;align=center;verticalAlign=middle;resizable=0;points=[];" vertex="1" connectable="0" parent="AWg_gz1br5wKKJKmFN-r-83">
          <mxGeometry x="0.0053" y="4" relative="1" as="geometry">
            <mxPoint x="-3" y="20" as="offset" />
          </mxGeometry>
        </mxCell>
        <mxCell id="AWg_gz1br5wKKJKmFN-r-23" value="7" style="ellipse;whiteSpace=wrap;html=1;aspect=fixed;" vertex="1" parent="1">
          <mxGeometry x="770" y="330" width="50" height="50" as="geometry" />
        </mxCell>
        <mxCell id="AWg_gz1br5wKKJKmFN-r-79" style="edgeStyle=orthogonalEdgeStyle;curved=1;rounded=0;orthogonalLoop=1;jettySize=auto;html=1;exitX=0;exitY=0;exitDx=0;exitDy=0;entryX=0.36;entryY=1.06;entryDx=0;entryDy=0;entryPerimeter=0;" edge="1" parent="1" source="AWg_gz1br5wKKJKmFN-r-18" target="AWg_gz1br5wKKJKmFN-r-19">
          <mxGeometry relative="1" as="geometry" />
        </mxCell>
        <mxCell id="AWg_gz1br5wKKJKmFN-r-80" value="VIRG" style="edgeLabel;html=1;align=center;verticalAlign=middle;resizable=0;points=[];" vertex="1" connectable="0" parent="AWg_gz1br5wKKJKmFN-r-79">
          <mxGeometry x="0.4012" y="-10" relative="1" as="geometry">
            <mxPoint x="2" y="19" as="offset" />
          </mxGeometry>
        </mxCell>
        <mxCell id="AWg_gz1br5wKKJKmFN-r-81" style="edgeStyle=orthogonalEdgeStyle;curved=1;rounded=0;orthogonalLoop=1;jettySize=auto;html=1;exitX=0;exitY=0.5;exitDx=0;exitDy=0;entryX=0.32;entryY=0;entryDx=0;entryDy=0;entryPerimeter=0;" edge="1" parent="1" source="AWg_gz1br5wKKJKmFN-r-19" target="AWg_gz1br5wKKJKmFN-r-9">
          <mxGeometry relative="1" as="geometry" />
        </mxCell>
        <mxCell id="AWg_gz1br5wKKJKmFN-r-82" value="&lt;div&gt;&lt;font color=&quot;#CC0000&quot;&gt;&lt;b&gt;1&lt;/b&gt;&lt;/font&gt;&lt;/div&gt;&lt;div&gt;ident&lt;/div&gt;" style="edgeLabel;html=1;align=center;verticalAlign=middle;resizable=0;points=[];" vertex="1" connectable="0" parent="AWg_gz1br5wKKJKmFN-r-81">
          <mxGeometry x="-0.2505" y="48" relative="1" as="geometry">
            <mxPoint as="offset" />
          </mxGeometry>
        </mxCell>
        <mxCell id="AWg_gz1br5wKKJKmFN-r-85" value="+" style="text;html=1;align=center;verticalAlign=middle;resizable=0;points=[];autosize=1;strokeColor=none;fillColor=none;fontSize=32;fontStyle=1" vertex="1" parent="1">
          <mxGeometry x="40" y="540" width="40" height="50" as="geometry" />
        </mxCell>
        <mxCell id="AWg_gz1br5wKKJKmFN-r-88" value="" style="edgeStyle=none;orthogonalLoop=1;jettySize=auto;html=1;rounded=0;curved=1;" edge="1" parent="1">
          <mxGeometry width="100" relative="1" as="geometry">
            <mxPoint x="-40" y="325" as="sourcePoint" />
            <mxPoint x="20" y="325" as="targetPoint" />
            <Array as="points" />
          </mxGeometry>
        </mxCell>
      </root>
    </mxGraphModel>
  </diagram>
</mxfile>
